# xmcd
#
# Track frame offsets: 
#        150
#        17834
#        32811
#        52679
#        69348
#        84943
#        98272
#        114757
#        129394
#        139872
#        155193
#        167899
#        182978
#        194092
#        211253
#        225343
#        235800
#        249404
#        263527
#        279133
#
# Disc length: 3940 seconds
#
# Revision: 0
# Processed by: cddbd v1.5.2PL0 Copyright (c) Steve Scherf et al.
# Submitted via: ExactAudioCopy v0.95b4
#
DISCID=fd0f6214
DTITLE=배호 - 천상의 가수 배호 전집 (아세아-2006) (10 CD)-09
DYEAR=2006
DGENRE=Country
TTITLE0=밤안개 속의 사랑
TTITLE1=추억
TTITLE2=산속의 오두막집
TTITLE3=비내리는 왕십리(Ng곡)
TTITLE4=잘있거라 내장산아
TTITLE5=안녕(Ng곡)
TTITLE6=영월의 애가(Ng곡)
TTITLE7=팔각정 엘레지(MR)
TTITLE8=우리마을 순이(MR)
TTITLE9=검은 꽃잎 부르스(MR)
TTITLE10=소공동 밤 10시(MR)
TTITLE11=부러진 날개(MR)
TTITLE12=비 내리는 서소문육교(MR)
TTITLE13=울고만 싶어요(MR)
TTITLE14=폭우(영화주제가)(MR)
TTITLE15=다시는 울지 않으리(MR)
TTITLE16=귀향(MR)
TTITLE17=푸른 하늘을 안자(MR)
TTITLE18=사랑의 길(MR)
TTITLE19=비린내 나는 부두(MR)
EXTD=
EXTT0=
EXTT1=
EXTT2=
EXTT3=
EXTT4=
EXTT5=
EXTT6=
EXTT7=
EXTT8=
EXTT9=
EXTT10=
EXTT11=
EXTT12=
EXTT13=
EXTT14=
EXTT15=
EXTT16=
EXTT17=
EXTT18=
EXTT19=
PLAYORDER=
